<svg width="198" height="128" viewBox="0 0 198 128" fill="none" xmlns="http://www.w3.org/2000/svg">
<path d="M73.393 71.1V71.55C73.183 71.55 72.973 71.625 72.763 71.775C72.553 71.925 72.343 72.12 72.133 72.36C71.953 72.6 71.773 72.87 71.593 73.17C71.443 73.44 71.308 73.695 71.188 73.935L63.448 90.765L55.753 73.755C55.543 73.275 55.273 72.795 54.943 72.315C54.613 71.805 54.193 71.55 53.683 71.55V71.1H59.848V71.55C59.668 71.55 59.428 71.64 59.128 71.82C58.858 72 58.723 72.255 58.723 72.585C58.723 72.735 58.843 73.08 59.083 73.62L64.258 85.275L69.838 73.125C69.958 72.825 70.018 72.6 70.018 72.45C70.018 72.18 69.883 71.97 69.613 71.82C69.373 71.64 69.163 71.55 68.983 71.55V71.1H73.393ZM78.6499 80.91C78.7699 81.96 79.0249 82.965 79.4149 83.925C79.8049 84.855 80.3149 85.68 80.9449 86.4C81.6049 87.12 82.3999 87.705 83.3299 88.155C84.2599 88.575 85.3399 88.785 86.5699 88.785C87.2299 88.785 87.9199 88.695 88.6399 88.515C89.3899 88.305 90.0799 88.02 90.7099 87.66C91.3399 87.3 91.8949 86.865 92.3749 86.355C92.8849 85.815 93.2299 85.215 93.4099 84.555H93.8149V87.93C93.6349 87.93 93.4249 87.99 93.1849 88.11C92.9749 88.23 92.7199 88.38 92.4199 88.56C91.8199 88.92 91.0099 89.31 89.9899 89.73C88.9699 90.12 87.6199 90.315 85.9399 90.315C84.5899 90.315 83.2999 90.12 82.0699 89.73C80.8699 89.34 79.8049 88.74 78.8749 87.93C77.9449 87.12 77.1949 86.085 76.6249 84.825C76.0849 83.565 75.8149 82.065 75.8149 80.325C75.8149 79.215 75.9949 78.09 76.3549 76.95C76.7449 75.81 77.3149 74.79 78.0649 73.89C78.8449 72.96 79.8349 72.21 81.0349 71.64C82.2349 71.07 83.6749 70.785 85.3549 70.785C86.8549 70.785 88.1599 71.04 89.2699 71.55C90.4099 72.06 91.3399 72.765 92.0599 73.665C92.8099 74.565 93.3649 75.63 93.7249 76.86C94.0849 78.09 94.2649 79.44 94.2649 80.91H78.6499ZM85.1749 72.27C84.1249 72.27 83.2099 72.48 82.4299 72.9C81.6799 73.32 81.0349 73.86 80.4949 74.52C79.9549 75.18 79.5349 75.93 79.2349 76.77C78.9349 77.61 78.7399 78.45 78.6499 79.29H91.4749C91.4449 78.42 91.2799 77.565 90.9799 76.725C90.7099 75.885 90.3199 75.135 89.8099 74.475C89.2999 73.815 88.6549 73.29 87.8749 72.9C87.0949 72.48 86.1949 72.27 85.1749 72.27ZM116.106 87.075C116.106 87.315 116.136 87.585 116.196 87.885C116.256 88.155 116.346 88.41 116.466 88.65C116.616 88.89 116.766 89.1 116.916 89.28C117.096 89.46 117.306 89.55 117.546 89.55V90H111.741V89.55C111.951 89.55 112.146 89.46 112.326 89.28C112.506 89.1 112.656 88.89 112.776 88.65C112.926 88.41 113.031 88.155 113.091 87.885C113.151 87.585 113.181 87.315 113.181 87.075V78.705C113.181 77.625 113.031 76.68 112.731 75.87C112.431 75.06 112.026 74.385 111.516 73.845C111.006 73.305 110.421 72.915 109.761 72.675C109.131 72.405 108.486 72.27 107.826 72.27C107.166 72.27 106.506 72.405 105.846 72.675C105.216 72.945 104.646 73.305 104.136 73.755C103.656 74.175 103.251 74.685 102.921 75.285C102.621 75.855 102.471 76.455 102.471 77.085V87.075C102.471 87.315 102.501 87.585 102.561 87.885C102.621 88.155 102.711 88.41 102.831 88.65C102.981 88.89 103.131 89.1 103.281 89.28C103.461 89.46 103.671 89.55 103.911 89.55V90H98.0607V89.55C98.2707 89.55 98.4657 89.46 98.6457 89.28C98.8257 89.1 98.9757 88.89 99.0957 88.65C99.2457 88.41 99.3507 88.155 99.4107 87.885C99.4707 87.585 99.5007 87.315 99.5007 87.075V74.655C99.5007 74.145 99.4257 73.665 99.2757 73.215C99.1257 72.735 98.6907 72.48 97.9707 72.45V72.045L102.471 70.605V73.08C102.681 72.84 102.951 72.585 103.281 72.315C103.611 72.015 104.001 71.745 104.451 71.505C104.931 71.235 105.471 71.025 106.071 70.875C106.701 70.695 107.436 70.605 108.276 70.605C109.686 70.605 110.886 70.845 111.876 71.325C112.866 71.805 113.676 72.435 114.306 73.215C114.936 73.965 115.386 74.805 115.656 75.735C115.956 76.635 116.106 77.52 116.106 78.39V87.075ZM126.376 72.63V83.475C126.376 84.255 126.391 84.96 126.421 85.59C126.451 86.22 126.526 86.745 126.646 87.165C126.766 87.585 126.946 87.915 127.186 88.155C127.426 88.365 127.756 88.47 128.176 88.47C128.806 88.47 129.391 88.17 129.931 87.57C130.501 86.97 130.861 86.25 131.011 85.41H131.416V88.695C131.146 88.695 130.921 88.785 130.741 88.965C130.501 89.175 130.156 89.4 129.706 89.64C129.286 89.88 128.641 90 127.771 90C126.691 90 125.851 89.79 125.251 89.37C124.651 88.95 124.216 88.395 123.946 87.705C123.676 87.015 123.511 86.25 123.451 85.41C123.421 84.57 123.406 83.715 123.406 82.845V72.63H120.886V71.1H123.406V67.095C123.406 66.585 123.331 66.12 123.181 65.7C123.061 65.25 122.626 65.01 121.876 64.98V64.53L126.376 63.09V71.1H131.416V72.63H126.376ZM151.403 88.38C151.163 88.38 150.938 88.44 150.728 88.56C150.518 88.65 150.278 88.77 150.008 88.92C149.498 89.22 148.853 89.535 148.073 89.865C147.293 90.165 146.273 90.315 145.013 90.315C143.483 90.315 142.058 90.075 140.738 89.595C139.448 89.085 138.323 88.395 137.363 87.525C136.433 86.625 135.698 85.59 135.158 84.42C134.648 83.22 134.393 81.93 134.393 80.55C134.393 79.26 134.618 78.03 135.068 76.86C135.548 75.69 136.223 74.655 137.093 73.755C137.963 72.855 139.028 72.135 140.288 71.595C141.578 71.055 143.033 70.785 144.653 70.785C145.763 70.785 146.663 70.92 147.353 71.19C148.043 71.43 148.628 71.67 149.108 71.91C149.378 72.06 149.633 72.18 149.873 72.27C150.143 72.36 150.413 72.405 150.683 72.405V75.825H150.233C150.083 75.255 149.813 74.76 149.423 74.34C149.033 73.89 148.583 73.515 148.073 73.215C147.563 72.915 147.008 72.69 146.408 72.54C145.808 72.39 145.223 72.315 144.653 72.315C143.423 72.315 142.343 72.54 141.413 72.99C140.483 73.41 139.718 73.98 139.118 74.7C138.518 75.39 138.068 76.185 137.768 77.085C137.468 77.985 137.318 78.915 137.318 79.875C137.318 80.985 137.498 82.08 137.858 83.16C138.218 84.21 138.728 85.155 139.388 85.995C140.078 86.835 140.903 87.51 141.863 88.02C142.823 88.53 143.903 88.785 145.103 88.785C145.943 88.785 146.708 88.665 147.398 88.425C148.118 88.185 148.718 87.87 149.198 87.48C149.708 87.09 150.113 86.67 150.413 86.22C150.713 85.74 150.893 85.29 150.953 84.87H151.403V88.38ZM172.218 87.075C172.218 87.285 172.248 87.54 172.308 87.84C172.368 88.11 172.443 88.38 172.533 88.65C172.653 88.89 172.803 89.1 172.983 89.28C173.163 89.46 173.373 89.55 173.613 89.55V90H169.248V87.525C168.798 88.185 168.138 88.83 167.268 89.46C166.398 90.09 165.273 90.405 163.893 90.405C162.153 90.405 160.773 90.105 159.753 89.505C158.733 88.905 157.953 88.14 157.413 87.21C156.873 86.28 156.528 85.275 156.378 84.195C156.228 83.085 156.153 82.05 156.153 81.09V74.655C156.153 74.385 156.138 74.13 156.108 73.89C156.108 73.62 156.048 73.38 155.928 73.17C155.838 72.96 155.688 72.795 155.478 72.675C155.268 72.525 154.968 72.45 154.578 72.45V72.045L159.123 70.605V82.08C159.123 84.36 159.618 86.04 160.608 87.12C161.598 88.2 162.813 88.74 164.253 88.74C165.033 88.74 165.723 88.575 166.323 88.245C166.953 87.885 167.478 87.465 167.898 86.985C168.348 86.505 168.678 86.01 168.888 85.5C169.128 84.99 169.248 84.57 169.248 84.24V74.655C169.248 74.385 169.233 74.13 169.203 73.89C169.203 73.62 169.143 73.38 169.023 73.17C168.933 72.96 168.783 72.795 168.573 72.675C168.363 72.525 168.063 72.45 167.673 72.45V72.045L172.218 70.605V87.075ZM180.471 80.91C180.591 81.96 180.846 82.965 181.236 83.925C181.626 84.855 182.136 85.68 182.766 86.4C183.426 87.12 184.221 87.705 185.151 88.155C186.081 88.575 187.161 88.785 188.391 88.785C189.051 88.785 189.741 88.695 190.461 88.515C191.211 88.305 191.901 88.02 192.531 87.66C193.161 87.3 193.716 86.865 194.196 86.355C194.706 85.815 195.051 85.215 195.231 84.555H195.636V87.93C195.456 87.93 195.246 87.99 195.006 88.11C194.796 88.23 194.541 88.38 194.241 88.56C193.641 88.92 192.831 89.31 191.811 89.73C190.791 90.12 189.441 90.315 187.761 90.315C186.411 90.315 185.121 90.12 183.891 89.73C182.691 89.34 181.626 88.74 180.696 87.93C179.766 87.12 179.016 86.085 178.446 84.825C177.906 83.565 177.636 82.065 177.636 80.325C177.636 79.215 177.816 78.09 178.176 76.95C178.566 75.81 179.136 74.79 179.886 73.89C180.666 72.96 181.656 72.21 182.856 71.64C184.056 71.07 185.496 70.785 187.176 70.785C188.676 70.785 189.981 71.04 191.091 71.55C192.231 72.06 193.161 72.765 193.881 73.665C194.631 74.565 195.186 75.63 195.546 76.86C195.906 78.09 196.086 79.44 196.086 80.91H180.471ZM186.996 72.27C185.946 72.27 185.031 72.48 184.251 72.9C183.501 73.32 182.856 73.86 182.316 74.52C181.776 75.18 181.356 75.93 181.056 76.77C180.756 77.61 180.561 78.45 180.471 79.29H193.296C193.266 78.42 193.101 77.565 192.801 76.725C192.531 75.885 192.141 75.135 191.631 74.475C191.121 73.815 190.476 73.29 189.696 72.9C188.916 72.48 188.016 72.27 186.996 72.27Z" fill="#ECB941"/>
<path d="M31.0785 88.2C40.0785 88.2 44.5785 83.1 44.5785 72.9H46.3785V90H4.07852V88.2H8.57852V41.4H4.07852V39.6H45.4785V54.9H43.6785C43.6785 49.56 42.5985 45.99 40.4385 44.19C38.3385 42.33 34.9185 41.4 30.1785 41.4H22.0785V63H25.6785C29.9985 63 32.7285 62.46 33.8685 61.38C35.0085 60.3 35.5785 58.14 35.5785 54.9H37.3785V72.9H35.5785C35.5785 69.54 35.0085 67.35 33.8685 66.33C32.7285 65.31 29.9985 64.8 25.6785 64.8H22.0785V88.2H31.0785Z" fill="#283995"/>
</svg>
