<svg width="340" height="254" viewBox="0 0 340 254" fill="none" xmlns="http://www.w3.org/2000/svg">
<path d="M340 223.215H0V223.385H340V223.215Z" fill="#EBEBEB"/>
<path d="M305.932 234.184H283.41V234.354H305.932V234.184Z" fill="#EBEBEB"/>
<path d="M225.23 236.038H219.32V236.208H225.23V236.038Z" fill="#EBEBEB"/>
<path d="M282.73 227.858H269.681V228.028H282.73V227.858Z" fill="#EBEBEB"/>
<path d="M65.042 229.003H35.6728V229.173H65.042V229.003Z" fill="#EBEBEB"/>
<path d="M75.4052 229.003H71.1008V229.173H75.4052V229.003Z" fill="#EBEBEB"/>
<path d="M153.102 231.88H89.3996V232.05H153.102V231.88Z" fill="#EBEBEB"/>
<path d="M161.16 192.813H29.8588C28.8302 192.811 27.8443 192.4 27.1176 191.67C26.3909 190.94 25.9828 189.951 25.9828 188.92V3.89229C25.9917 2.86707 26.4038 1.88678 27.1296 1.16437C27.8553 0.441952 28.836 0.0357528 29.8588 0.0339966H161.16C162.19 0.0339966 163.177 0.444086 163.906 1.17405C164.634 1.90401 165.043 2.89405 165.043 3.92638V188.92C165.043 189.952 164.634 190.943 163.906 191.672C163.177 192.402 162.19 192.813 161.16 192.813ZM29.8588 0.170333C28.8753 0.172138 27.9327 0.565068 27.2378 1.26288C26.543 1.96068 26.1528 2.90635 26.1528 3.89229V188.92C26.1528 189.906 26.543 190.852 27.2378 191.55C27.9327 192.247 28.8753 192.64 29.8588 192.642H161.16C162.144 192.64 163.087 192.248 163.783 191.55C164.479 190.852 164.871 189.907 164.873 188.92V3.89229C164.871 2.90572 164.479 1.96007 163.783 1.26246C163.087 0.564847 162.144 0.172135 161.16 0.170333H29.8588Z" fill="#EBEBEB"/>
<path d="M308.251 192.813H176.943C175.914 192.811 174.927 192.4 174.199 191.67C173.471 190.941 173.062 189.952 173.06 188.92V3.89229C173.071 2.86645 173.484 1.88617 174.211 1.16394C174.938 0.441714 175.919 0.0357337 176.943 0.0339966H308.251C309.272 0.0375444 310.251 0.444537 310.976 1.16676C311.7 1.88898 312.111 2.86824 312.12 3.89229V188.92C312.12 189.95 311.713 190.938 310.988 191.668C310.262 192.397 309.278 192.809 308.251 192.813ZM176.943 0.170333C175.959 0.172135 175.015 0.564847 174.319 1.26246C173.624 1.96007 173.232 2.90572 173.23 3.89229V188.92C173.232 189.907 173.624 190.852 174.319 191.55C175.015 192.248 175.959 192.64 176.943 192.642H308.251C309.235 192.64 310.178 192.248 310.874 191.55C311.57 190.852 311.962 189.907 311.964 188.92V3.89229C311.962 2.90572 311.57 1.96007 310.874 1.26246C310.178 0.564847 309.235 0.172135 308.251 0.170333H176.943Z" fill="#EBEBEB"/>
<path d="M303.674 210.352H211.548C210.654 210.352 209.93 211.079 209.93 211.975V221.682C209.93 222.578 210.654 223.304 211.548 223.304H303.674C304.568 223.304 305.293 222.578 305.293 221.682V211.975C305.293 211.079 304.568 210.352 303.674 210.352Z" fill="#E0E0E0"/>
<path d="M221.877 213.842H213.037C212.801 213.842 212.574 213.748 212.407 213.581C212.24 213.413 212.146 213.186 212.146 212.949C212.148 212.714 212.243 212.488 212.41 212.322C212.577 212.156 212.802 212.063 213.037 212.063H221.877C222.112 212.063 222.336 212.157 222.502 212.323C222.668 212.489 222.761 212.714 222.761 212.949C222.762 213.066 222.74 213.182 222.696 213.291C222.652 213.399 222.587 213.497 222.505 213.58C222.422 213.663 222.325 213.729 222.217 213.774C222.109 213.819 221.994 213.842 221.877 213.842Z" fill="#FAFAFA"/>
<path d="M249.077 217.353H213.037C212.802 217.353 212.577 217.26 212.41 217.094C212.243 216.928 212.148 216.702 212.146 216.467C212.146 216.23 212.24 216.003 212.407 215.835C212.574 215.668 212.801 215.574 213.037 215.574H249.077C249.312 215.576 249.537 215.671 249.703 215.838C249.868 216.005 249.961 216.231 249.961 216.467C249.961 216.583 249.938 216.698 249.894 216.806C249.849 216.913 249.784 217.011 249.702 217.093C249.62 217.176 249.523 217.241 249.415 217.286C249.308 217.33 249.193 217.353 249.077 217.353Z" fill="#FAFAFA"/>
<path d="M244.317 220.761H213.037C212.802 220.761 212.577 220.668 212.41 220.502C212.243 220.336 212.148 220.111 212.146 219.875C212.146 219.638 212.24 219.411 212.407 219.244C212.574 219.076 212.801 218.982 213.037 218.982H244.317C244.552 218.984 244.777 219.079 244.943 219.246C245.108 219.413 245.201 219.64 245.201 219.875C245.201 220.11 245.108 220.336 244.942 220.502C244.776 220.668 244.552 220.761 244.317 220.761Z" fill="#FAFAFA"/>
<path d="M294.916 181.504H202.783C201.889 181.504 201.164 182.23 201.164 183.126V192.833C201.164 193.729 201.889 194.455 202.783 194.455H294.916C295.81 194.455 296.534 193.729 296.534 192.833V183.126C296.534 182.23 295.81 181.504 294.916 181.504Z" fill="#E0E0E0"/>
<path d="M213.112 184.994H204.272C204.037 184.994 203.811 184.901 203.645 184.735C203.478 184.569 203.383 184.343 203.381 184.108C203.381 183.871 203.475 183.644 203.642 183.476C203.809 183.309 204.036 183.215 204.272 183.215H213.112C213.347 183.216 213.572 183.311 213.738 183.479C213.903 183.646 213.996 183.872 213.996 184.108C213.996 184.343 213.903 184.568 213.737 184.734C213.571 184.9 213.346 184.994 213.112 184.994Z" fill="#FAFAFA"/>
<path d="M240.312 188.511H204.272C204.036 188.511 203.809 188.417 203.642 188.25C203.475 188.082 203.381 187.855 203.381 187.618C203.381 187.381 203.475 187.154 203.642 186.987C203.809 186.819 204.036 186.725 204.272 186.725H240.312C240.547 186.727 240.772 186.822 240.938 186.989C241.103 187.156 241.196 187.383 241.196 187.618C241.196 187.854 241.103 188.08 240.938 188.247C240.772 188.415 240.547 188.509 240.312 188.511Z" fill="#FAFAFA"/>
<path d="M235.552 191.92H204.272C204.036 191.92 203.809 191.826 203.642 191.658C203.475 191.491 203.381 191.263 203.381 191.027C203.381 190.79 203.475 190.563 203.642 190.395C203.809 190.228 204.036 190.134 204.272 190.134H235.552C235.787 190.135 236.012 190.23 236.178 190.398C236.343 190.565 236.436 190.791 236.436 191.027C236.436 191.262 236.343 191.488 236.178 191.656C236.012 191.823 235.787 191.918 235.552 191.92Z" fill="#FAFAFA"/>
<path d="M288.66 196.051H196.534C195.64 196.051 194.915 196.777 194.915 197.673V207.38C194.915 208.276 195.64 209.002 196.534 209.002H288.66C289.554 209.002 290.278 208.276 290.278 207.38V197.673C290.278 196.777 289.554 196.051 288.66 196.051Z" fill="#EBEBEB"/>
<path d="M206.863 199.541H198.023C197.787 199.541 197.56 199.447 197.393 199.279C197.226 199.112 197.132 198.885 197.132 198.648C197.134 198.412 197.228 198.187 197.395 198.021C197.562 197.855 197.788 197.762 198.023 197.762H206.863C207.097 197.762 207.322 197.855 207.488 198.021C207.654 198.187 207.747 198.413 207.747 198.648C207.748 198.765 207.726 198.881 207.682 198.989C207.637 199.097 207.572 199.196 207.49 199.279C207.408 199.362 207.31 199.428 207.203 199.473C207.095 199.518 206.979 199.541 206.863 199.541Z" fill="#FAFAFA"/>
<path d="M234.063 203.051H198.023C197.788 203.051 197.562 202.958 197.395 202.792C197.228 202.626 197.134 202.401 197.132 202.165C197.132 201.928 197.226 201.701 197.393 201.534C197.56 201.366 197.787 201.272 198.023 201.272H234.063C234.298 201.274 234.523 201.369 234.688 201.536C234.854 201.703 234.947 201.93 234.947 202.165C234.947 202.4 234.854 202.626 234.688 202.792C234.522 202.958 234.297 203.051 234.063 203.051Z" fill="#FAFAFA"/>
<path d="M229.303 206.46H198.023C197.788 206.46 197.562 206.367 197.395 206.201C197.228 206.035 197.134 205.809 197.132 205.574C197.132 205.337 197.226 205.11 197.393 204.942C197.56 204.775 197.787 204.681 198.023 204.681H229.303C229.538 204.682 229.763 204.777 229.928 204.945C230.094 205.112 230.187 205.338 230.187 205.574C230.187 205.809 230.094 206.034 229.928 206.2C229.762 206.366 229.537 206.46 229.303 206.46Z" fill="#FAFAFA"/>
<path d="M43.3364 148.483L28.0432 223.386H100.089L43.3364 148.483Z" fill="#E0E0E0"/>
<path d="M148.043 223.386H55.7532L43.3364 148.483H135.626L148.043 223.386Z" fill="#F5F5F5"/>
<path d="M66.504 175.437H51.8908L49.98 163.998H64.5864L66.504 175.437Z" fill="#EBEBEB"/>
<path d="M83.8848 175.205H69.2784L67.3608 163.766H81.974L83.8848 175.205Z" fill="#EBEBEB"/>
<path d="M101.272 174.973H86.666L84.7484 163.535H99.3548L101.272 174.973Z" fill="#EBEBEB"/>
<path d="M118.653 174.741H104.047L102.136 163.303H116.742L118.653 174.741Z" fill="#EBEBEB"/>
<path d="M136.041 174.51H121.434L119.517 163.071H134.123L136.041 174.51Z" fill="#EBEBEB"/>
<path d="M68.8636 189.547H54.2572L52.3396 178.102H66.946L68.8636 189.547Z" fill="#EBEBEB"/>
<path d="M86.2444 189.309H71.638L69.7272 177.87H84.3336L86.2444 189.309Z" fill="#EBEBEB"/>
<path d="M103.632 189.084H89.0256L87.108 177.638H101.714L103.632 189.084Z" fill="#EBEBEB"/>
<path d="M121.02 188.845H106.406L104.496 177.407H119.102L121.02 188.845Z" fill="#EBEBEB"/>
<path d="M138.4 188.613H123.794L121.876 177.175H136.49L138.4 188.613Z" fill="#EBEBEB"/>
<path d="M71.2232 203.651H56.6168L54.6992 192.206H69.3056L71.2232 203.651Z" fill="#EBEBEB"/>
<path d="M88.6108 203.42H74.0044L72.0868 191.974H86.6932L88.6108 203.42Z" fill="#EBEBEB"/>
<path d="M105.992 203.188H91.3852L89.4676 191.742H104.081L105.992 203.188Z" fill="#EBEBEB"/>
<path d="M123.379 202.956H108.773L106.855 191.511H121.462L123.379 202.956Z" fill="#EBEBEB"/>
<path d="M140.76 202.724H126.154L124.243 191.279H138.849L140.76 202.724Z" fill="#EBEBEB"/>
<path d="M73.5828 217.755H58.9764L57.0588 206.317H71.672L73.5828 217.755Z" fill="#EBEBEB"/>
<path d="M90.9704 217.523H76.364L74.4464 206.078H89.0528L90.9704 217.523Z" fill="#EBEBEB"/>
<path d="M108.351 217.292H93.7448L91.834 205.853H106.44L108.351 217.292Z" fill="#EBEBEB"/>
<path d="M125.739 217.06H111.132L109.215 205.615H123.821L125.739 217.06Z" fill="#EBEBEB"/>
<path d="M143.12 216.828H128.513L126.602 205.383H141.209L143.12 216.828Z" fill="#EBEBEB"/>
<path d="M137.251 158.197H44.9616L43.3364 148.483H135.626L137.251 158.197Z" fill="#E6E6E6"/>
<path d="M193.848 144.379L192.658 143.275C192.447 143.074 192.191 142.927 191.912 142.845C191.633 142.764 191.338 142.75 191.053 142.805L184.504 144.12C184.231 144.174 183.975 144.297 183.763 144.479C183.551 144.66 183.39 144.894 183.294 145.157L182.777 146.608C182.682 146.871 182.521 147.104 182.308 147.284C182.096 147.465 181.841 147.587 181.567 147.638L177.657 148.429C177.435 148.47 177.225 148.557 177.039 148.685C176.853 148.814 176.697 148.98 176.579 149.173C176.462 149.366 176.386 149.581 176.358 149.805C176.329 150.029 176.347 150.257 176.412 150.474L182.063 172.151C182.181 172.605 182.466 172.999 182.86 173.251C183.255 173.504 183.731 173.598 184.192 173.514L215.172 167.291C215.394 167.248 215.603 167.16 215.789 167.032C215.974 166.903 216.13 166.737 216.247 166.545C216.364 166.352 216.44 166.137 216.469 165.913C216.498 165.689 216.481 165.462 216.417 165.246L210.8 143.548C210.681 143.094 210.396 142.702 210.001 142.449C209.607 142.197 209.132 142.102 208.672 142.184L195.48 144.836C195.191 144.899 194.892 144.89 194.607 144.81C194.323 144.731 194.062 144.583 193.848 144.379Z" fill="#EBEBEB"/>
<path d="M212.16 143.664L183.777 149.369C183.196 149.495 182.682 149.829 182.33 150.309C181.978 150.788 181.813 151.38 181.866 151.973L183.96 171.306C183.986 171.584 184.07 171.854 184.207 172.097C184.345 172.34 184.532 172.551 184.758 172.715C184.983 172.88 185.241 172.994 185.514 173.051C185.787 173.108 186.068 173.105 186.34 173.044L214.724 167.338C215.303 167.213 215.817 166.88 216.168 166.401C216.52 165.923 216.686 165.333 216.634 164.741L214.54 145.402C214.515 145.124 214.431 144.854 214.293 144.611C214.156 144.368 213.968 144.157 213.743 143.992C213.518 143.828 213.26 143.713 212.987 143.657C212.714 143.6 212.432 143.602 212.16 143.664Z" fill="#F5F5F5"/>
<path d="M292.305 94.4465L291.625 92.9672C291.502 92.7037 291.319 92.4728 291.091 92.2928C290.863 92.1129 290.597 91.989 290.312 91.9311L283.744 90.6972C283.47 90.6425 283.187 90.6602 282.922 90.7487C282.657 90.8372 282.42 90.9933 282.234 91.2017L281.207 92.3537C281.022 92.561 280.786 92.7165 280.522 92.8049C280.259 92.8933 279.977 92.9117 279.704 92.8582L275.781 92.1151C275.562 92.0723 275.336 92.0755 275.119 92.1246C274.901 92.1736 274.696 92.2674 274.516 92.4001C274.337 92.5327 274.186 92.7013 274.075 92.8951C273.964 93.089 273.894 93.3039 273.87 93.5262L271 115.742C270.945 116.206 271.065 116.673 271.337 117.052C271.609 117.431 272.013 117.693 272.469 117.787L303.518 123.656C303.737 123.7 303.963 123.698 304.181 123.65C304.399 123.602 304.604 123.509 304.785 123.377C304.965 123.245 305.116 123.077 305.228 122.883C305.34 122.689 305.411 122.475 305.436 122.252L308.305 100.029C308.361 99.566 308.241 99.0986 307.969 98.7198C307.697 98.341 307.292 98.0785 306.836 97.9844L293.61 95.469C293.328 95.4126 293.063 95.2907 292.836 95.1131C292.61 94.9356 292.428 94.7073 292.305 94.4465Z" fill="#EBEBEB"/>
<path d="M309.543 100.663L281.098 95.2849C280.518 95.1882 279.922 95.3063 279.421 95.6173C278.921 95.9283 278.55 96.411 278.378 96.9755L273.081 115.688C273 115.955 272.977 116.236 273.013 116.513C273.05 116.79 273.145 117.056 273.292 117.293C273.44 117.53 273.636 117.733 273.869 117.888C274.101 118.042 274.363 118.145 274.638 118.189L303.083 123.575C303.664 123.669 304.26 123.55 304.761 123.238C305.261 122.926 305.631 122.442 305.803 121.877L311.1 103.172C311.181 102.904 311.204 102.622 311.168 102.345C311.132 102.067 311.036 101.801 310.889 101.564C310.742 101.326 310.545 101.123 310.313 100.968C310.081 100.812 309.818 100.709 309.543 100.663Z" fill="#F5F5F5"/>
<path d="M51.7956 46.9949L51.1156 45.5156C50.9944 45.2523 50.813 45.0213 50.5862 44.8413C50.3594 44.6613 50.0935 44.5373 49.81 44.4795L43.248 43.2388C42.9743 43.1834 42.691 43.2008 42.4261 43.2893C42.1612 43.3778 41.9241 43.5343 41.7384 43.7433L40.7116 44.8953C40.5243 45.102 40.2868 45.2564 40.0222 45.3436C39.7577 45.4308 39.4751 45.4478 39.202 45.3929L35.2852 44.6567C35.0666 44.6128 34.8414 44.615 34.6237 44.6632C34.4061 44.7114 34.2008 44.8046 34.021 44.9367C33.8413 45.0688 33.6909 45.237 33.5796 45.4306C33.4683 45.6241 33.3984 45.8388 33.3744 46.061L30.5048 68.2837C30.4476 68.7474 30.567 69.2156 30.8394 69.5948C31.1117 69.9739 31.5168 70.2361 31.9736 70.3287L63.0224 76.2048C63.2412 76.2476 63.4665 76.2447 63.6842 76.1961C63.9018 76.1475 64.1071 76.0544 64.2871 75.9225C64.4672 75.7907 64.6181 75.623 64.7305 75.4299C64.8428 75.2368 64.9141 75.0225 64.94 74.8005L67.8028 52.5778C67.8602 52.1151 67.7417 51.6477 67.4707 51.2687C67.1998 50.8897 66.7963 50.6269 66.3408 50.5328L53.108 48.0242C52.8236 47.9691 52.5562 47.847 52.3281 47.6681C52.0999 47.4891 51.9174 47.2584 51.7956 46.9949Z" fill="#EBEBEB"/>
<path d="M69.0404 53.205L40.596 47.8197C40.0147 47.7262 39.4192 47.8466 38.9194 48.1585C38.4195 48.4704 38.049 48.9529 37.876 49.5171L32.5584 68.2019C32.4772 68.4691 32.4538 68.7506 32.4898 69.0275C32.5257 69.3045 32.6203 69.5706 32.767 69.8081C32.9138 70.0455 33.1094 70.2488 33.3408 70.4044C33.5721 70.5601 33.834 70.6644 34.1088 70.7104L62.56 76.1161C63.1408 76.2129 63.7369 76.0948 64.2373 75.7838C64.7376 75.4728 65.1082 74.9901 65.28 74.4256L70.5704 55.7135C70.6529 55.4478 70.6778 55.1675 70.6436 54.8913C70.6093 54.6151 70.5167 54.3495 70.3719 54.112C70.2271 53.8746 70.0334 53.6709 69.8038 53.5145C69.5742 53.358 69.3139 53.2525 69.0404 53.205Z" fill="#F5F5F5"/>
<path d="M150.851 71.5285L149.267 69.5652C148.986 69.214 148.627 68.9341 148.218 68.7482C147.809 68.5622 147.362 68.4755 146.914 68.495L136.551 69.0676C136.118 69.0862 135.698 69.2181 135.331 69.4501C134.965 69.6821 134.666 70.0062 134.463 70.3901L133.341 72.5101C133.138 72.8931 132.838 73.2165 132.472 73.4483C132.106 73.6802 131.686 73.8126 131.254 73.8325L125.072 74.1734C124.726 74.1903 124.388 74.2788 124.077 74.4334C123.767 74.5881 123.492 74.8054 123.27 75.0718C123.047 75.3382 122.883 75.6479 122.786 75.9813C122.689 76.3148 122.661 76.6647 122.706 77.0092L126.63 111.591C126.715 112.312 127.068 112.974 127.619 113.445C128.17 113.917 128.878 114.162 129.601 114.133L178.609 111.407C178.955 111.391 179.295 111.303 179.605 111.149C179.916 110.994 180.191 110.777 180.414 110.51C180.636 110.244 180.801 109.934 180.898 109.6C180.994 109.266 181.021 108.915 180.975 108.571L177.058 73.9893C176.972 73.2678 176.617 72.6054 176.065 72.1341C175.513 71.6629 174.804 71.4175 174.08 71.4467L153.211 72.6055C152.761 72.6242 152.313 72.5365 151.903 72.3494C151.493 72.1623 151.133 71.8811 150.851 71.5285Z" fill="#EBEBEB"/>
<path d="M179.166 74.4801L134.286 76.9751C133.367 77.0386 132.503 77.4369 131.857 78.0949C131.211 78.7528 130.827 79.625 130.778 80.5471L129.737 110.739C129.714 111.172 129.783 111.605 129.94 112.009C130.097 112.413 130.338 112.779 130.648 113.082C130.958 113.385 131.329 113.618 131.736 113.765C132.143 113.912 132.577 113.97 133.008 113.936L177.888 111.448C178.808 111.384 179.673 110.985 180.319 110.325C180.966 109.666 181.349 108.792 181.397 107.869L182.437 77.6772C182.46 77.2443 182.39 76.8116 182.232 76.408C182.075 76.0043 181.833 75.639 181.524 75.3364C181.214 75.0338 180.844 74.8009 180.437 74.6532C180.031 74.5056 179.598 74.4466 179.166 74.4801Z" fill="#F5F5F5"/>
<path d="M168.055 9.89797L166.824 8.83455C166.605 8.64423 166.345 8.50856 166.063 8.43866C165.782 8.36876 165.488 8.3666 165.206 8.43236L158.712 10.007C158.441 10.0717 158.192 10.2055 157.988 10.3955C157.784 10.5854 157.633 10.825 157.549 11.0909L157.08 12.5633C156.999 12.833 156.849 13.0768 156.645 13.2706C156.441 13.4643 156.19 13.6012 155.917 13.6676L152.041 14.6084C151.827 14.66 151.626 14.7551 151.451 14.8876C151.275 15.0201 151.128 15.1873 151.019 15.3789C150.91 15.5705 150.841 15.7824 150.817 16.0016C150.793 16.2208 150.814 16.4426 150.878 16.6534L157.386 38.0854C157.524 38.5317 157.824 38.9095 158.228 39.1434C158.631 39.3772 159.108 39.4497 159.562 39.3465L190.271 31.8889C190.485 31.838 190.687 31.7435 190.864 31.6113C191.04 31.4791 191.188 31.312 191.298 31.1204C191.407 30.9287 191.476 30.7165 191.501 30.497C191.526 30.2774 191.505 30.0551 191.44 29.8439L184.96 8.39146C184.823 7.94512 184.522 7.56727 184.119 7.33346C183.715 7.09965 183.239 7.02711 182.784 7.13036L169.701 10.3002C169.414 10.3705 169.115 10.3707 168.829 10.3007C168.543 10.2307 168.277 10.0925 168.055 9.89797Z" fill="#EBEBEB"/>
<path d="M186.32 8.45279L158.182 15.2696C157.609 15.4221 157.111 15.7794 156.783 16.2741C156.455 16.7688 156.319 17.3669 156.4 17.9554L159.256 37.1923C159.291 37.4693 159.385 37.7356 159.531 37.9731C159.678 38.2107 159.873 38.4142 160.104 38.5698C160.336 38.7254 160.597 38.8296 160.872 38.8754C161.147 38.9212 161.428 38.9075 161.697 38.8352L189.836 32.0184C190.406 31.8662 190.902 31.5113 191.231 31.0197C191.56 30.528 191.7 29.9333 191.624 29.3462L188.768 10.1093C188.735 9.83033 188.642 9.56183 188.496 9.32204C188.35 9.08225 188.154 8.87677 187.922 8.71961C187.69 8.56244 187.426 8.45726 187.15 8.41122C186.874 8.36518 186.59 8.37936 186.32 8.45279Z" fill="#F5F5F5"/>
<path d="M170 254C242.816 254 301.845 250.545 301.845 246.283C301.845 242.022 242.816 238.567 170 238.567C97.1839 238.567 38.1548 242.022 38.1548 246.283C38.1548 250.545 97.1839 254 170 254Z" fill="#F5F5F5"/>
<path d="M286.13 22.0523V139.226C286.129 140.14 285.765 141.016 285.121 141.663C284.476 142.309 283.602 142.673 282.69 142.675H54.0192C53.1072 142.673 52.233 142.309 51.5881 141.663C50.9433 141.016 50.5802 140.14 50.5784 139.226V22.0523C50.5784 21.1375 50.9409 20.2601 51.5862 19.6133C52.2314 18.9664 53.1066 18.603 54.0192 18.603H282.69C283.602 18.603 284.477 18.9664 285.123 19.6133C285.768 20.2601 286.13 21.1375 286.13 22.0523Z" fill="#283995"/>
<path opacity="0.7" d="M286.13 35.7199V139.226C286.129 140.14 285.765 141.016 285.121 141.663C284.476 142.309 283.602 142.673 282.69 142.675H54.0192C53.1072 142.673 52.233 142.309 51.5881 141.663C50.9433 141.016 50.5802 140.14 50.5784 139.226V35.7199H286.13Z" fill="white"/>
<path opacity="0.1" d="M75.0516 35.7199V142.675H54.0192C53.1072 142.673 52.233 142.309 51.5881 141.663C50.9433 141.016 50.5802 140.14 50.5784 139.226V35.7199H75.0516Z" fill="black"/>
<path opacity="0.1" d="M121.591 35.7199H97.1176V142.675H121.591V35.7199Z" fill="black"/>
<path opacity="0.1" d="M168.13 35.7199H143.657V142.675H168.13V35.7199Z" fill="black"/>
<path opacity="0.1" d="M214.669 35.7199H190.196V142.675H214.669V35.7199Z" fill="black"/>
<path opacity="0.1" d="M261.208 35.7199H236.735V142.675H261.208V35.7199Z" fill="black"/>
<path opacity="0.7" d="M286.13 35.7199H50.5784V45.5429H286.13V35.7199Z" fill="white"/>
<path d="M149.954 69.3539H57.8272C56.9334 69.3539 56.2088 70.0803 56.2088 70.9763V80.6834C56.2088 81.5794 56.9334 82.3058 57.8272 82.3058H149.954C150.847 82.3058 151.572 81.5794 151.572 80.6834V70.9763C151.572 70.0803 150.847 69.3539 149.954 69.3539Z" fill="#283995"/>
<path opacity="0.2" d="M149.954 69.3539H57.8272C56.9334 69.3539 56.2088 70.0803 56.2088 70.9763V80.6834C56.2088 81.5794 56.9334 82.3058 57.8272 82.3058H149.954C150.847 82.3058 151.572 81.5794 151.572 80.6834V70.9763C151.572 70.0803 150.847 69.3539 149.954 69.3539Z" fill="white"/>
<path opacity="0.7" d="M68.1564 72.8441H59.3164C59.0801 72.8441 58.8536 72.75 58.6865 72.5825C58.5194 72.4151 58.4256 72.1879 58.4256 71.9511C58.4274 71.7154 58.522 71.4901 58.6889 71.3241C58.8558 71.1581 59.0813 71.0649 59.3164 71.0649H68.1564C68.3909 71.0649 68.6157 71.1583 68.7815 71.3245C68.9473 71.4907 69.0404 71.7161 69.0404 71.9511C69.0404 72.1868 68.9475 72.4129 68.7819 72.5801C68.6163 72.7474 68.3915 72.8423 68.1564 72.8441Z" fill="white"/>
<path opacity="0.7" d="M95.3564 76.382H59.3164C59.0813 76.382 58.8558 76.2889 58.6889 76.1229C58.522 75.9569 58.4274 75.7315 58.4256 75.4958C58.4256 75.259 58.5194 75.0319 58.6865 74.8644C58.8536 74.6969 59.0801 74.6028 59.3164 74.6028H95.3564C95.4731 74.6028 95.5886 74.626 95.6963 74.6709C95.804 74.7159 95.9017 74.7818 95.9839 74.8648C96.0661 74.9478 96.1311 75.0463 96.1751 75.1546C96.2191 75.2629 96.2413 75.3789 96.2404 75.4958C96.2404 75.6122 96.2175 75.7275 96.1731 75.835C96.1287 75.9425 96.0636 76.0402 95.9815 76.1225C95.8994 76.2048 95.8019 76.27 95.6947 76.3146C95.5874 76.3591 95.4725 76.382 95.3564 76.382Z" fill="white"/>
<path opacity="0.7" d="M90.5964 79.7904H59.3164C59.0813 79.7904 58.8558 79.6973 58.6889 79.5313C58.522 79.3653 58.4274 79.1399 58.4256 78.9042C58.4256 78.6674 58.5194 78.4403 58.6865 78.2728C58.8536 78.1053 59.0801 78.0112 59.3164 78.0112H90.5964C90.7131 78.0112 90.8286 78.0344 90.9363 78.0793C91.044 78.1243 91.1417 78.1902 91.2239 78.2732C91.3061 78.3562 91.3711 78.4547 91.4151 78.563C91.4591 78.6713 91.4813 78.7873 91.4804 78.9042C91.4804 79.0206 91.4575 79.1358 91.4131 79.2434C91.3687 79.3509 91.3036 79.4486 91.2215 79.5308C91.1394 79.6131 91.042 79.6784 90.9347 79.723C90.8274 79.7675 90.7125 79.7904 90.5964 79.7904Z" fill="white"/>
<path d="M230.296 89.3066H138.169C137.275 89.3066 136.551 90.033 136.551 90.929V100.636C136.551 101.532 137.275 102.258 138.169 102.258H230.296C231.189 102.258 231.914 101.532 231.914 100.636V90.929C231.914 90.033 231.189 89.3066 230.296 89.3066Z" fill="white"/>
<path opacity="0.3" d="M148.498 92.7968H139.658C139.423 92.7968 139.198 92.7037 139.031 92.5377C138.864 92.3717 138.769 92.1463 138.768 91.9106C138.768 91.6738 138.861 91.4467 139.028 91.2792C139.196 91.1117 139.422 91.0176 139.658 91.0176H148.498C148.733 91.0194 148.958 91.1143 149.124 91.2816C149.289 91.4489 149.382 91.675 149.382 91.9106C149.382 92.027 149.36 92.1422 149.315 92.2498C149.271 92.3573 149.206 92.455 149.123 92.5373C149.041 92.6195 148.944 92.6848 148.837 92.7294C148.729 92.7739 148.614 92.7968 148.498 92.7968Z" fill="black"/>
<path opacity="0.3" d="M175.698 96.3143H139.658C139.422 96.3143 139.196 96.2202 139.028 96.0527C138.861 95.8852 138.768 95.6581 138.768 95.4213C138.769 95.1856 138.864 94.9602 139.031 94.7942C139.198 94.6282 139.423 94.5351 139.658 94.5351H175.698C175.814 94.5351 175.929 94.558 176.037 94.6025C176.144 94.6471 176.241 94.7124 176.323 94.7946C176.406 94.8769 176.471 94.9746 176.515 95.0821C176.56 95.1897 176.582 95.3049 176.582 95.4213C176.582 95.6569 176.489 95.883 176.324 96.0503C176.158 96.2176 175.933 96.3125 175.698 96.3143Z" fill="black"/>
<path opacity="0.3" d="M170.938 99.7227H139.658C139.422 99.7227 139.196 99.6286 139.028 99.4611C138.861 99.2936 138.768 99.0665 138.768 98.8297C138.769 98.594 138.864 98.3686 139.031 98.2026C139.198 98.0366 139.423 97.9435 139.658 97.9435H170.938C171.173 97.9435 171.398 98.0368 171.563 98.203C171.729 98.3692 171.822 98.5946 171.822 98.8297C171.822 99.0653 171.729 99.2914 171.564 99.4587C171.398 99.626 171.173 99.7209 170.938 99.7227Z" fill="black"/>
<path d="M174.447 228.989C169.599 225.254 169.422 219.446 174.447 216.187C179.472 212.929 182.158 200.55 182.158 200.55H151.3C151.3 200.55 154.02 212.956 159.011 216.187C164.002 219.418 163.853 225.254 159.011 228.989C154.17 232.725 151.3 245.206 151.3 245.206H182.158C182.158 245.206 179.289 232.732 174.447 228.989Z" fill="#283995"/>
<path opacity="0.7" d="M174.447 228.989C169.599 225.254 169.422 219.446 174.447 216.187C179.472 212.929 182.158 200.55 182.158 200.55H151.3C151.3 200.55 154.02 212.956 159.011 216.187C164.002 219.418 163.853 225.254 159.011 228.989C154.17 232.725 151.3 245.206 151.3 245.206H182.158C182.158 245.206 179.289 232.732 174.447 228.989Z" fill="white"/>
<path d="M182.179 202.526H151.28C150.757 202.526 150.255 202.318 149.885 201.947C149.515 201.577 149.308 201.074 149.308 200.55C149.308 200.025 149.515 199.523 149.885 199.152C150.255 198.781 150.757 198.573 151.28 198.573H182.179C182.702 198.573 183.203 198.781 183.573 199.152C183.943 199.523 184.151 200.025 184.151 200.55C184.151 201.074 183.943 201.577 183.573 201.947C183.203 202.318 182.702 202.526 182.179 202.526Z" fill="#283995"/>
<path d="M182.179 247.517H151.28C150.757 247.517 150.255 247.309 149.885 246.938C149.515 246.568 149.308 246.065 149.308 245.54C149.308 245.016 149.515 244.513 149.885 244.143C150.255 243.772 150.757 243.564 151.28 243.564H182.179C182.702 243.564 183.203 243.772 183.573 244.143C183.943 244.513 184.151 245.016 184.151 245.54C184.151 246.065 183.943 246.568 183.573 246.938C183.203 247.309 182.702 247.517 182.179 247.517Z" fill="#283995"/>
<path d="M153.551 242.889H178.84C178.84 242.889 171.863 239.003 167.722 237.701V227.96C167.744 223.447 169.508 219.118 172.645 215.881C173.702 214.768 174.637 213.546 175.433 212.234L157.141 211.354C158.079 212.813 159.149 214.182 160.337 215.444C163.362 218.64 165.042 222.88 165.029 227.285V237.401C160.881 237.94 153.551 242.889 153.551 242.889Z" fill="#283995"/>
<path opacity="0.4" d="M153.551 242.889H178.84C178.84 242.889 171.863 239.003 167.722 237.701V227.96C167.744 223.447 169.508 219.118 172.645 215.881C173.702 214.768 174.637 213.546 175.433 212.234L157.141 211.354C158.079 212.813 159.149 214.182 160.337 215.444C163.362 218.64 165.042 222.88 165.029 227.285V237.401C160.881 237.94 153.551 242.889 153.551 242.889Z" fill="white"/>
<path d="M267.441 66.2003L176.25 53.0271C175.365 52.8993 174.545 53.5146 174.417 54.4015L173.036 64.0093C172.908 64.8962 173.522 65.7187 174.407 65.8465L265.598 79.0198C266.483 79.1476 267.303 78.5323 267.431 77.6454L268.812 68.0376C268.94 67.1507 268.326 66.3281 267.441 66.2003Z" fill="#283995"/>
<path opacity="0.1" d="M267.441 66.2003L176.25 53.0271C175.365 52.8993 174.545 53.5146 174.417 54.4015L173.036 64.0093C172.908 64.8962 173.522 65.7187 174.407 65.8465L265.598 79.0198C266.483 79.1476 267.303 78.5323 267.431 77.6454L268.812 68.0376C268.94 67.1507 268.326 66.3281 267.441 66.2003Z" fill="black"/>
<path opacity="0.7" d="M185.973 57.9767L177.222 56.7156C176.988 56.6818 176.778 56.5567 176.636 56.3676C176.495 56.1784 176.434 55.9408 176.467 55.7067C176.502 55.474 176.628 55.2646 176.816 55.1242C177.005 54.9838 177.241 54.9237 177.473 54.9569L186.225 56.218C186.34 56.2347 186.451 56.274 186.551 56.3338C186.651 56.3936 186.739 56.4727 186.808 56.5665C186.878 56.6602 186.928 56.7668 186.956 56.8802C186.984 56.9935 186.99 57.1113 186.973 57.2269C186.957 57.3422 186.918 57.4533 186.86 57.5536C186.801 57.6539 186.722 57.7415 186.629 57.8112C186.536 57.881 186.43 57.9315 186.318 57.9599C186.205 57.9883 186.088 57.994 185.973 57.9767Z" fill="white"/>
<path opacity="0.7" d="M212.391 65.3388L176.718 60.1853C176.603 60.1687 176.492 60.1293 176.392 60.0695C176.292 60.0097 176.205 59.9306 176.135 59.8368C176.066 59.7431 176.015 59.6365 175.987 59.5231C175.959 59.4098 175.953 59.292 175.97 59.1764C175.987 59.0608 176.026 58.9496 176.086 58.8493C176.146 58.7489 176.224 58.6614 176.318 58.5917C176.412 58.522 176.518 58.4715 176.631 58.4432C176.744 58.4149 176.862 58.4092 176.977 58.4266L212.643 63.5801C212.759 63.5959 212.87 63.6347 212.971 63.6942C213.072 63.7536 213.16 63.8326 213.23 63.9264C213.301 64.0203 213.352 64.1272 213.38 64.2409C213.409 64.3546 213.415 64.4729 213.398 64.589C213.381 64.7046 213.342 64.8158 213.282 64.9161C213.222 65.0165 213.144 65.104 213.05 65.1737C212.956 65.2434 212.85 65.2939 212.737 65.3222C212.624 65.3505 212.506 65.3562 212.391 65.3388Z" fill="white"/>
<path opacity="0.7" d="M207.196 68.0314L176.236 63.5596C176.12 63.543 176.009 63.5036 175.909 63.4438C175.809 63.384 175.722 63.3049 175.652 63.2111C175.583 63.1174 175.532 63.0108 175.504 62.8974C175.476 62.7841 175.47 62.6663 175.488 62.5508C175.503 62.4354 175.542 62.3244 175.601 62.224C175.66 62.1237 175.738 62.0362 175.831 61.9664C175.924 61.8966 176.03 61.8461 176.143 61.8177C176.255 61.7893 176.372 61.7836 176.487 61.8009L207.448 66.2727C207.564 66.2886 207.675 66.3274 207.776 66.3868C207.877 66.4463 207.965 66.5252 208.035 66.619C208.105 66.7129 208.156 66.8198 208.185 66.9335C208.214 67.0473 208.22 67.1656 208.202 67.2816C208.167 67.5143 208.042 67.7237 207.853 67.8641C207.665 68.0045 207.428 68.0647 207.196 68.0314Z" fill="white"/>
<path d="M245.024 242.091L239.129 242.711L238.83 239.283L238.027 229.964L243.923 229.337L244.814 239.63L245.024 242.091Z" fill="#E4897B"/>
<path d="M274.448 241.341H268.736L268.688 240.039L268.682 239.882L268.389 231.573L268.382 231.402L268.267 228.219H273.986L274.448 241.341Z" fill="#E4897B"/>
<path opacity="0.2" d="M243.923 229.337L244.814 239.63L238.83 239.283L238.027 229.964L243.923 229.337Z" fill="black"/>
<path opacity="0.2" d="M274.414 240.612H274.407L268.688 239.882H268.682L268.382 231.866H268.389L274.115 232.323L274.407 240.36L274.414 240.612Z" fill="black"/>
<path d="M267.92 240.994H274.863C274.976 240.994 275.086 241.034 275.174 241.106C275.262 241.178 275.322 241.278 275.346 241.389L276.474 246.488C276.497 246.599 276.497 246.713 276.475 246.823C276.453 246.934 276.409 247.039 276.345 247.133C276.282 247.226 276.201 247.306 276.106 247.367C276.011 247.429 275.905 247.47 275.794 247.49H275.611C273.367 247.456 271.728 247.313 268.906 247.313C267.172 247.313 261.929 247.497 259.529 247.497C257.128 247.497 256.809 245.125 257.802 244.9C262.208 243.938 265.52 242.609 266.934 241.341C267.067 241.221 267.223 241.128 267.392 241.069C267.562 241.009 267.741 240.983 267.92 240.994Z" fill="#263238"/>
<path d="M238.503 240.816H245.48C245.593 240.818 245.702 240.856 245.791 240.927C245.88 240.997 245.942 241.095 245.97 241.205L247.092 246.311C247.115 246.419 247.118 246.531 247.098 246.64C247.079 246.75 247.037 246.854 246.977 246.947C246.917 247.04 246.839 247.121 246.748 247.183C246.657 247.246 246.554 247.29 246.446 247.313H246.255C244.011 247.313 242.379 247.142 239.557 247.142C237.816 247.142 232.58 247.32 230.18 247.32C227.78 247.32 227.46 244.947 228.446 244.729C232.852 243.768 236.171 242.432 237.578 241.164C237.832 240.936 238.162 240.812 238.503 240.816Z" fill="#263238"/>
<path d="M237.483 238.424H245.868C245.868 238.424 245.188 175.866 254.245 151.442C254.884 159.513 255.605 167.89 256.285 174.871C256.727 179.193 257.162 180.863 257.577 183.685C260.216 201.906 266.873 239.153 266.873 239.153H275.155C275.155 239.153 274.176 203.788 273.19 185.88C272.109 166.445 271.646 125.77 271.599 122.123H241.271C238.415 137.426 231.016 188.859 237.483 238.424Z" fill="#263238"/>
<path opacity="0.2" d="M237.483 238.424H245.868C245.868 238.424 245.188 175.866 254.245 151.442C254.884 159.513 255.605 167.89 256.285 174.871C256.727 179.193 257.162 180.863 257.577 183.685C260.216 201.906 266.873 239.153 266.873 239.153H275.155C275.155 239.153 274.176 203.788 273.19 185.88C272.109 166.445 271.646 125.77 271.599 122.123H241.271C238.415 137.426 231.016 188.859 237.483 238.424Z" fill="white"/>
<path d="M275.182 73.8871C279.378 76.6138 289.054 97.0096 285.131 101.1C278.29 108.23 270.851 88.3863 270.851 88.3863L275.182 73.8871Z" fill="#283995"/>
<path opacity="0.3" d="M285.131 101.106C283.54 102.763 281.914 102.961 280.371 102.286C275.25 100.057 270.892 88.3863 270.892 88.3863L273.36 80.0767L275.203 73.8871C279.378 76.5797 289.054 97.0096 285.131 101.106Z" fill="black"/>
<path opacity="0.2" d="M280.357 102.286C275.237 100.057 270.878 88.3863 270.878 88.3863L273.36 80.0767C273.36 80.0767 281.52 89.8315 280.357 102.286Z" fill="black"/>
<path d="M252.314 59.9467C252.38 60.2216 252.462 60.4924 252.559 60.7579C253.096 62.2765 254.083 63.5942 255.388 64.5344C255.715 64.775 256.06 64.9893 256.421 65.1752C257.801 65.9124 259.383 66.1782 260.927 65.9321C262.47 65.686 263.892 64.9416 264.976 63.8119C267.838 60.9147 267.764 57.5677 268.083 51.9029C268.176 50.6854 267.978 49.4632 267.505 48.3378C267.116 47.397 266.545 46.5425 265.826 45.8229C265.107 45.1033 264.254 44.5329 263.315 44.1442C262.376 43.7554 261.369 43.5561 260.353 43.5575C259.337 43.5589 258.332 43.761 257.394 44.1523C251.845 46.3882 251.09 54.8478 252.314 59.9467Z" fill="#E4897B"/>
<path opacity="0.2" d="M255.388 64.5344C255.715 64.7751 256.06 64.9893 256.421 65.1752C257.367 65.6812 258.413 65.9683 259.484 66.0155C260.555 66.0627 261.623 65.8688 262.609 65.4479C262.357 64.7665 262.019 64.1205 261.603 63.5256C259.477 63.2584 257.32 63.6085 255.388 64.5344Z" fill="black"/>
<path d="M266.757 71.8829C263.976 74.4188 257.156 73.4849 257.156 73.4849C257.156 73.4849 252.899 72.3124 253.79 70.9831C256.299 70.5673 257.516 69.3948 258.012 67.8883C258.29 66.9587 258.378 65.9827 258.271 65.0184C258.227 64.4813 258.157 63.9466 258.06 63.4165L266.492 57.1587C265.384 61.2897 264.037 68.8835 266.757 71.8829Z" fill="#E4897B"/>
<path d="M255.388 54.7864L254.17 55.25L254.776 52.755C254.776 52.755 252.987 50.0283 254.776 47.6629C254.776 47.6629 249.852 46.1632 252.634 43.5728C253.667 42.6049 254.952 43.5728 258.346 42.0868C260.195 41.2824 265.955 41.2211 266.247 43.5728C266.247 43.5728 270.402 43.5728 270.844 50.6623C270.976 52.7389 270.651 54.8192 269.892 56.7558C269.133 58.6925 267.958 60.4381 266.451 61.8691C266.451 61.8691 261.433 63.0552 258.971 61.0374C256.51 59.0197 255.388 54.7864 255.388 54.7864Z" fill="#263238"/>
<path d="M258.597 55.1954C258.49 55.7289 258.265 56.2315 257.939 56.6667C257.613 57.1019 257.195 57.4586 256.714 57.7108C255.564 58.2016 254.81 56.5793 254.973 54.8751C255.136 53.3617 255.911 51.2349 257.142 51.5212C258.373 51.8075 258.998 53.6685 258.597 55.1954Z" fill="#E4897B"/>
<path opacity="0.2" d="M254.245 151.407C254.884 159.479 255.605 167.877 256.285 174.857C257.319 164.775 258.584 157.59 258.584 157.59C258.584 157.59 259.767 156.615 263.024 151.407C266.281 146.199 263.024 136.465 263.024 136.465C263.16 145.504 254.245 151.407 254.245 151.407Z" fill="black"/>
<path d="M236.545 236.058L236.953 238.424H246.854V236.235L236.545 236.058Z" fill="#283995"/>
<path d="M265.955 236.965L266.9 239.153H275.21L275.754 236.965H265.955Z" fill="#283995"/>
<path d="M271.898 127.106V131.577L240.122 129.342V125.381L271.898 127.106Z" fill="#283995"/>
<path opacity="0.2" d="M271.898 127.106V131.577L240.122 129.342V125.381L271.898 127.106Z" fill="white"/>
<path d="M254.952 70.3901C254.952 70.3901 258.434 67.3361 264.472 68.8358C270.511 70.3355 269.763 74.6028 269.763 74.6028L254.952 70.3901Z" fill="#283995"/>
<path d="M211.222 73.6553L205.952 69.9947C205.196 69.0874 204.325 68.283 203.361 67.602C202.212 66.9203 195.119 65.7819 194.732 66.2386C194.344 66.6954 194.351 70.3287 195.119 71.1604C195.888 71.992 201.919 72.8714 202.212 72.8714C202.643 72.8245 203.073 72.7539 203.497 72.66L208.733 76.9001L211.222 73.6553Z" fill="#E4897B"/>
<path d="M210.548 73.0281L207.291 70.3287L204.034 73.6485L207.291 77.2477L210.548 73.0281Z" fill="#283995"/>
<path opacity="0.2" d="M254.952 70.3901C254.952 70.3901 258.434 67.3361 264.472 68.8358C270.511 70.3355 269.763 74.6028 269.763 74.6028L254.952 70.3901Z" fill="white"/>
<path opacity="0.2" d="M210.548 73.0281L207.291 70.3287L204.034 73.6485L207.291 77.2477L210.548 73.0281Z" fill="white"/>
<path d="M238.571 123.418C238.543 123.819 238.594 124.222 238.723 124.603C238.852 124.983 239.055 125.335 239.321 125.636C239.587 125.936 239.911 126.181 240.272 126.355C240.634 126.529 241.027 126.629 241.427 126.649L271.252 128.108C271.479 128.12 271.707 128.085 271.92 128.007C272.134 127.928 272.329 127.806 272.495 127.649C272.66 127.493 272.792 127.304 272.882 127.094C272.973 126.885 273.019 126.659 273.02 126.431C273.21 108.23 279.426 77.1796 275.182 73.8871C270.79 70.4787 249.254 68.6995 249.254 68.6995C248.244 71.0814 247.363 73.5163 246.616 75.9934C246.52 76.307 246.418 76.6206 246.33 76.941C245.092 81.0311 244.052 85.4483 243.161 89.9269C243.093 90.2269 243.039 90.5268 242.978 90.8268C240.887 101.597 239.416 112.478 238.571 123.418Z" fill="#283995"/>
<path opacity="0.3" d="M273.02 126.431C273.019 126.66 272.972 126.886 272.882 127.096C272.791 127.306 272.658 127.495 272.492 127.652C272.326 127.809 272.13 127.93 271.916 128.009C271.701 128.087 271.473 128.121 271.245 128.108L241.4 126.649C240.999 126.629 240.607 126.529 240.245 126.355C239.883 126.181 239.56 125.936 239.294 125.636C239.028 125.335 238.825 124.983 238.696 124.603C238.567 124.222 238.515 123.819 238.544 123.418C239.389 112.478 240.86 101.597 242.95 90.8268C243.012 90.5268 243.066 90.2269 243.134 89.9269C243.429 88.4591 243.739 87.0026 244.066 85.5574C244.746 82.5921 245.473 79.695 246.303 76.941C246.391 76.6206 246.493 76.307 246.588 75.9934C246.684 75.6799 246.792 75.3118 246.888 75.0118C247.608 72.7759 248.39 70.6491 249.227 68.6995C249.227 68.6995 270.762 70.4855 275.155 73.8871C279.426 77.1796 273.21 108.23 273.02 126.431Z" fill="black"/>
<path opacity="0.2" d="M244.12 85.5574C244.8 82.5921 245.528 79.695 246.357 76.941C246.446 76.6206 246.548 76.307 246.643 75.9935C246.738 75.6799 246.847 75.3118 246.942 75.0119L248.649 74.6028C248.649 74.6028 249.166 81.2151 244.12 85.5574Z" fill="black"/>
<path d="M249.254 68.6995C252.865 68.3927 245.242 80.8061 245.242 80.8061C245.242 80.8061 228.188 88.6863 223.04 88.8363C218.96 88.9522 210.188 81.0447 206.598 77.6363C206.391 77.4407 206.227 77.205 206.115 76.9437C206.003 76.6823 205.945 76.4007 205.945 76.1162C205.945 75.8316 206.003 75.55 206.115 75.2887C206.227 75.0273 206.391 74.7916 206.598 74.596L208.638 72.66C208.977 72.3344 209.415 72.1326 209.883 72.0868C210.35 72.0411 210.819 72.1541 211.215 72.4078C214.2 74.337 221.218 78.7406 223.04 78.7679C225.311 78.7952 243.664 69.1699 249.254 68.6995Z" fill="#283995"/>
<path opacity="0.3" d="M249.254 68.6995C252.865 68.3927 245.242 80.8061 245.242 80.8061C245.242 80.8061 228.188 88.6863 223.04 88.8363C218.96 88.9522 210.188 81.0447 206.598 77.6363C206.391 77.4407 206.227 77.205 206.115 76.9437C206.003 76.6823 205.945 76.4007 205.945 76.1162C205.945 75.8316 206.003 75.55 206.115 75.2887C206.227 75.0273 206.391 74.7916 206.598 74.596L208.638 72.66C208.977 72.3344 209.415 72.1326 209.883 72.0868C210.35 72.0411 210.819 72.1541 211.215 72.4078C214.2 74.337 221.218 78.7406 223.04 78.7679C225.311 78.7952 243.664 69.1699 249.254 68.6995Z" fill="black"/>
</svg>
